<?xml version="1.0" encoding="UTF-8" standalone="no"?>
<!-- Created with Inkscape (http://www.inkscape.org/) -->

<svg
   width="128mm"
   height="128mm"
   viewBox="0 0 128 128"
   version="1.1"
   id="svg1"
   inkscape:version="1.4 (86a8ad7, 2024-10-11)"
   sodipodi:docname="clear-vision-logo.svg"
   xml:space="preserve"
   xmlns:inkscape="http://www.inkscape.org/namespaces/inkscape"
   xmlns:sodipodi="http://sodipodi.sourceforge.net/DTD/sodipodi-0.dtd"
   xmlns="http://www.w3.org/2000/svg"
   xmlns:svg="http://www.w3.org/2000/svg"><sodipodi:namedview
     id="namedview1"
     pagecolor="#ffffff"
     bordercolor="#000000"
     borderopacity="0.25"
     inkscape:showpageshadow="2"
     inkscape:pageopacity="0.0"
     inkscape:pagecheckerboard="0"
     inkscape:deskcolor="#d1d1d1"
     inkscape:document-units="mm"
     inkscape:zoom="1.5625561"
     inkscape:cx="320.94848"
     inkscape:cy="214.07231"
     inkscape:window-width="1920"
     inkscape:window-height="1057"
     inkscape:window-x="1912"
     inkscape:window-y="-8"
     inkscape:window-maximized="1"
     inkscape:current-layer="layer1" /><defs
     id="defs1" /><g
     inkscape:label="Camada 1"
     inkscape:groupmode="layer"
     id="layer1"><g
       style="fill:#ffd42a;stroke:currentColor;stroke-width:2;stroke-linecap:round;stroke-linejoin:round"
       id="g1"
       transform="matrix(0.26458333,0,0,0.26458333,71.488244,28.283681)" /><g
       id="g2"
       transform="matrix(1.8901753,0,0,1.8901753,-41.440945,-43.292068)"><rect
         style="fill:#c8ab37;fill-opacity:1;stroke:#c8ab37;stroke-width:0.11959"
         id="rect3"
         width="48.160164"
         height="3.6922333"
         x="22.068195"
         y="23.23757" /><rect
         style="fill:#c8ab37;fill-opacity:1;stroke:#c8ab37;stroke-width:0.11959"
         id="rect3-7"
         width="48.160164"
         height="3.6922333"
         x="41.413185"
         y="86.772423" /></g><g
       id="g3"
       inkscape:export-filename="clear-vision-logo.png"
       inkscape:export-xdpi="200"
       inkscape:export-ydpi="200"
       transform="translate(17.102053,22.18187)"><path
         style="font-weight:bold;font-size:8.0312px;line-height:0;font-family:Inter;-inkscape-font-specification:'Inter Bold';text-align:center;text-anchor:middle;fill:#e6e6e6;stroke-width:0.269762"
         d="m 27.046125,37.06657 q -0.799983,0 -1.431342,-0.364698 -0.627437,-0.36862 -0.988214,-1.043115 -0.356855,-0.678417 -0.356855,-1.603887 0,-0.933314 0.356855,-1.611731 0.360777,-0.678416 0.988214,-1.043115 0.631359,-0.364698 1.431342,-0.364698 0.513715,0 0.952921,0.152938 0.439206,0.152938 0.776454,0.435285 0.341169,0.282347 0.556851,0.678417 0.215681,0.39607 0.286268,0.886255 h -1.219582 q -0.05098,-0.258818 -0.168623,-0.458813 -0.117645,-0.203917 -0.29019,-0.341169 -0.172546,-0.141174 -0.39607,-0.211761 -0.219603,-0.07451 -0.482343,-0.07451 -0.498028,0 -0.850962,0.239211 -0.349012,0.23921 -0.537243,0.678417 -0.188232,0.435284 -0.188232,1.035272 0,0.596065 0.18431,1.03135 0.188231,0.435285 0.541165,0.674495 0.352934,0.239211 0.850962,0.239211 0.26274,0 0.482343,-0.07059 0.219603,-0.07059 0.392148,-0.21176 0.172546,-0.141173 0.29019,-0.341169 0.117645,-0.199996 0.176467,-0.454892 h 1.21566 q -0.07059,0.486264 -0.286268,0.882334 -0.215682,0.39607 -0.556851,0.678416 -0.341169,0.282347 -0.780375,0.435285 -0.435285,0.149017 -0.949,0.149017 z m 4.372455,-5.937128 v 5.843012 h -1.156838 v -5.843012 z m 2.705825,5.937128 q -0.627438,0 -1.094095,-0.274504 -0.462735,-0.278426 -0.721553,-0.768611 -0.254896,-0.490186 -0.254896,-1.117623 0,-0.635281 0.258818,-1.121545 0.262739,-0.490185 0.721553,-0.768611 0.458813,-0.278425 1.050958,-0.278425 0.458813,0 0.831354,0.156859 0.372541,0.152938 0.643124,0.443128 0.270582,0.286268 0.415677,0.678417 0.149017,0.392148 0.149017,0.866648 V 35.1921 h -3.658745 v -0.737239 h 3.101894 l -0.521558,0.176467 q 0,-0.313719 -0.113723,-0.541165 -0.113723,-0.227446 -0.325483,-0.349012 -0.207839,-0.125488 -0.498028,-0.125488 -0.286269,0 -0.494107,0.125488 -0.207839,0.121566 -0.321562,0.349012 -0.113723,0.227446 -0.113723,0.541165 v 0.50195 q 0,0.321562 0.113723,0.564694 0.117644,0.23921 0.337247,0.372541 0.219604,0.129409 0.529401,0.129409 0.227446,0 0.399991,-0.06274 0.176467,-0.06667 0.294112,-0.18431 0.121566,-0.121566 0.172545,-0.282347 h 1.054879 q -0.07451,0.411756 -0.349012,0.725475 -0.274504,0.313719 -0.690181,0.494107 -0.415677,0.176467 -0.917627,0.176467 z m 3.946576,-0.02353 q -0.411756,0 -0.733318,-0.137252 -0.321562,-0.137252 -0.505871,-0.411756 -0.18431,-0.278425 -0.18431,-0.690181 0,-0.349012 0.129409,-0.58038 0.129409,-0.235289 0.352933,-0.376463 0.227446,-0.145094 0.517636,-0.219603 0.294112,-0.07451 0.615673,-0.101958 0.380384,-0.03921 0.603909,-0.07451 0.223525,-0.03529 0.321562,-0.101958 0.09804,-0.06667 0.09804,-0.199996 v -0.02745 q 0,-0.152938 -0.08235,-0.266661 -0.08235,-0.117645 -0.235289,-0.18431 -0.149017,-0.06667 -0.360777,-0.06667 -0.21176,0 -0.376462,0.06667 -0.160781,0.06667 -0.254897,0.188231 -0.09412,0.121566 -0.109802,0.282347 h -1.086251 q 0.02745,-0.427442 0.250975,-0.74116 0.227446,-0.313719 0.635281,-0.482343 0.407834,-0.172545 0.976449,-0.172545 0.423521,0 0.756847,0.09804 0.333326,0.09412 0.560772,0.278425 0.231368,0.18431 0.349012,0.447049 0.117645,0.26274 0.117645,0.596066 v 2.807783 h -1.129388 v -0.584301 h -0.01569 q -0.109801,0.203917 -0.270582,0.349012 -0.160781,0.145095 -0.392148,0.227446 -0.231368,0.07843 -0.549008,0.07843 z m 0.321561,-0.803905 q 0.278426,0 0.478422,-0.101958 0.203917,-0.101959 0.313718,-0.278426 0.109802,-0.176466 0.109802,-0.399991 v -0.415677 q -0.05098,0.02745 -0.133331,0.0549 -0.08235,0.02353 -0.192152,0.04706 -0.109802,0.01961 -0.239211,0.04314 -0.129409,0.02353 -0.266661,0.04314 -0.199996,0.03137 -0.360776,0.09804 -0.160781,0.06274 -0.254897,0.172545 -0.09412,0.10588 -0.09412,0.270583 0,0.145095 0.07843,0.250975 0.07843,0.10588 0.223525,0.160781 0.145095,0.0549 0.337247,0.0549 z m 2.85092,0.733318 v -4.141088 h 1.113702 v 0.705868 h 0.01176 q 0.113724,-0.372541 0.356856,-0.55293 0.243132,-0.180388 0.654887,-0.180388 0.101959,0 0.18431,0.0039 0.08627,0 0.15686,0.0039 v 0.984293 q -0.06274,-0.0039 -0.207839,-0.01177 -0.141173,-0.0078 -0.29019,-0.0078 -0.235289,0 -0.42352,0.109802 -0.188231,0.10588 -0.294112,0.31764 -0.10588,0.21176 -0.10588,0.525479 v 2.243089 z m 6.395942,0 -2.050936,-5.843012 h 1.313697 l 0.945078,2.843076 q 0.168624,0.529401 0.349012,1.152917 0.18431,0.619594 0.399991,1.352912 h -0.349012 q 0.207839,-0.733318 0.384306,-1.352912 0.180388,-0.623516 0.341169,-1.152917 l 0.913706,-2.843076 h 1.298011 l -2.0078,5.843012 z m 3.988149,0 v -4.141088 h 1.156838 v 4.141088 z m 0.576458,-4.662645 q -0.286268,0 -0.4745,-0.172545 -0.188231,-0.176467 -0.188231,-0.443128 0,-0.266661 0.188231,-0.439206 0.188232,-0.176467 0.470579,-0.176467 0.286268,0 0.474499,0.176467 0.188231,0.172545 0.188231,0.439206 0,0.266661 -0.188231,0.443128 -0.188231,0.172545 -0.470578,0.172545 z m 3.117581,4.764604 q -0.537243,0 -0.956842,-0.164703 -0.419599,-0.168624 -0.670574,-0.482342 -0.250975,-0.313719 -0.29019,-0.756847 h 1.137231 q 0.03137,0.270583 0.227446,0.423521 0.196074,0.152937 0.533322,0.152937 0.321561,0 0.50195,-0.121566 0.184309,-0.121566 0.184309,-0.313718 0,-0.164703 -0.141173,-0.266661 -0.137252,-0.101959 -0.392148,-0.149017 l -0.725475,-0.141173 q -0.603909,-0.117645 -0.917628,-0.423521 -0.313718,-0.305875 -0.313718,-0.784296 0,-0.392149 0.21176,-0.68626 0.215682,-0.294112 0.60783,-0.454892 0.39607,-0.160781 0.937235,-0.160781 0.537243,0 0.937235,0.172545 0.399991,0.168624 0.623516,0.482343 0.227446,0.313718 0.23921,0.745082 h -1.070565 q -0.0039,-0.250975 -0.196074,-0.415678 -0.192153,-0.164702 -0.50195,-0.164702 -0.298033,0 -0.466657,0.129409 -0.168624,0.125487 -0.168624,0.309797 0,0.160781 0.133331,0.26274 0.13333,0.101958 0.368619,0.152938 l 0.784297,0.152938 q 0.627438,0.121566 0.921549,0.399991 0.298033,0.274504 0.298033,0.733318 0,0.411755 -0.235289,0.721553 -0.231368,0.305876 -0.647045,0.478421 -0.411756,0.168624 -0.952921,0.168624 z m 2.45485,-0.101959 v -4.141088 h 1.156838 v 4.141088 z m 0.576459,-4.662645 q -0.286269,0 -0.4745,-0.172545 -0.188231,-0.176467 -0.188231,-0.443128 0,-0.266661 0.188231,-0.439206 0.188231,-0.176467 0.470578,-0.176467 0.286268,0 0.4745,0.176467 0.188231,0.172545 0.188231,0.439206 0,0.266661 -0.188231,0.443128 -0.188232,0.172545 -0.470578,0.172545 z"
         id="path5" /><path
         style="font-weight:bold;font-size:8.0312px;line-height:0;font-family:Inter;-inkscape-font-specification:'Inter Bold';text-align:center;text-anchor:middle;fill:#c8ab37;stroke-width:0.269762"
         d="m 61.670477,37.06657 q -0.623516,0 -1.098015,-0.270583 -0.4745,-0.270582 -0.741161,-0.756846 -0.262739,-0.486264 -0.262739,-1.133309 0,-0.650967 0.262739,-1.137231 0.266661,-0.486264 0.741161,-0.756846 0.474499,-0.274504 1.098015,-0.274504 0.631359,0 1.101937,0.274504 0.4745,0.270582 0.73724,0.756846 0.26666,0.486264 0.26666,1.137231 0,0.647045 -0.26666,1.133309 -0.26274,0.486264 -0.73724,0.756846 -0.470578,0.270583 -1.101937,0.270583 z m 0,-0.937235 q 0.282347,0 0.494107,-0.145095 0.211761,-0.149016 0.329405,-0.42352 0.117645,-0.274504 0.117645,-0.654888 0,-0.388227 -0.117645,-0.662731 -0.117644,-0.274504 -0.329405,-0.419599 -0.21176,-0.149016 -0.494107,-0.149016 -0.278425,0 -0.490185,0.149016 -0.21176,0.145095 -0.329405,0.419599 -0.117645,0.274504 -0.117645,0.662731 0,0.384305 0.117645,0.658809 0.117645,0.270583 0.329405,0.419599 0.21176,0.145095 0.490185,0.145095 z"
         id="path6" /><path
         style="font-weight:bold;font-size:8.0312px;line-height:0;font-family:Inter;-inkscape-font-specification:'Inter Bold';text-align:center;text-anchor:middle;fill:#ececec;stroke-width:0.269762"
         d="m 65.568431,34.670543 v 2.301911 h -1.156838 v -4.141088 h 1.137231 v 1.078409 H 65.35275 q 0.196074,-0.549008 0.560772,-0.854884 0.364698,-0.309797 0.929392,-0.309797 0.443127,0 0.768611,0.192152 0.325483,0.188232 0.50195,0.55293 0.180388,0.364698 0.180388,0.890177 v 2.592101 h -1.152916 v -2.380341 q 0,-0.415677 -0.199996,-0.631359 -0.196074,-0.219603 -0.560772,-0.219603 -0.239211,0 -0.423521,0.09804 -0.18431,0.09804 -0.286268,0.305876 -0.101959,0.203917 -0.101959,0.525479 z"
         id="path7" /><path
         id="path1-9-32"
         style="fill:none;stroke:#c8ab37;stroke-width:0.5"
         d="M 61.893326,37.881045 A 2.8020296,2.5880728 0 0 1 59.657503,36.941564" /><path
         id="path1-9-3-2"
         style="fill:none;stroke:#c8ab37;stroke-width:0.5"
         transform="rotate(-177.2844)"
         d="m -62.609162,-29.049203 a 2.8020296,2.5880728 0 0 1 -2.536982,-0.611394" /><g
         id="g7"
         inkscape:export-filename="clear-vision-icon.png"
         inkscape:export-xdpi="200"
         inkscape:export-ydpi="200"><path
           style="font-weight:bold;font-size:8.0312px;line-height:0;font-family:Inter;-inkscape-font-specification:'Inter Bold';text-align:center;text-anchor:middle;fill:#c8ab37;stroke-width:0.736105"
           d="m -2.3308938,98.947805 q -1.701401,0 -2.996176,-0.738345 -1.294778,-0.738343 -2.022421,-2.065221 -0.716941,-1.326879 -0.716941,-3.092484 0,-1.776307 0.716941,-3.103185 0.727643,-1.326879 2.022421,-2.065222 1.294775,-0.749044 2.996176,-0.749044 1.72280196,0 3.00687796,0.749044 1.29477804,0.738343 2.01172204,2.065222 0.727641,1.326878 0.727641,3.103185 0,1.765605 -0.727641,3.092484 -0.716944,1.326878 -2.01172204,2.065221 -1.284076,0.738345 -3.00687796,0.738345 z m 0,-2.557452 q 0.770446,0 1.34827996,-0.395924 0.577837,-0.406623 0.898854,-1.155668 0.321021,-0.749044 0.321021,-1.787006 0,-1.059363 -0.321021,-1.808408 -0.321017,-0.749044 -0.898854,-1.144968 -0.57783396,-0.406623 -1.34827996,-0.406623 -0.759744,0 -1.337578,0.406623 -0.577833,0.395924 -0.898854,1.144968 -0.32102,0.749045 -0.32102,1.808408 0,1.048661 0.32102,1.797706 0.321021,0.738345 0.898854,1.144968 0.577834,0.395924 1.337578,0.395924 z"
           id="path6-2" /><path
           id="path1-9-32-7"
           style="fill:none;stroke:#c8ab37;stroke-width:1.36436"
           d="m -1.7228008,101.17028 a 7.6459556,7.0621273 0 0 1 -6.100936,-2.563581" /><path
           id="path1-9-3-2-9"
           style="fill:none;stroke:#c8ab37;stroke-width:1.36436"
           d="m -3.7168928,85.075902 a 7.6459556,7.0621273 2.7156 0 1 6.835898,1.994438" /></g></g></g></svg>
